<?xml version="1.0" encoding="UTF-8"?>
<svg width="201px" height="178px" viewBox="0 0 201 178" version="1.1" xmlns="http://www.w3.org/2000/svg" xmlns:xlink="http://www.w3.org/1999/xlink">
    <!-- Generator: sketchtool 52 (66869) - http://www.bohemiancoding.com/sketch -->
    <title>27C1B86C-AF8A-4BC2-9FBB-F782B25F68D7</title>
    <desc>Created with sketchtool.</desc>
    <defs>
        <path d="M87.2119014,0.37694345 C62.1692798,3.52665737 30.1188201,14.3724065 12.8135691,33.5096339 C7.51030595,39.3739795 3.72907553,46.4407109 2.10018888,54.2127737 C0.856739678,60.1480358 0.00508828317,65.9619094 0,71.5330058 L0,71.6326722 C0.0101765663,82.5480601 3.28575885,92.5332282 13.2562497,100.689901 C23.0321138,108.685574 34.9946675,109.53785 45.6164586,115.374085 C65.7641518,126.444722 72.1219616,154.33151 97.2587165,157.679918 C98.8462609,157.891389 100.428081,157.994889 101.995908,158 L102.226789,158 C118.769434,157.948889 134.025379,146.90764 144.747663,134.932977 C156.637709,121.651151 164.520732,104.366058 165.806795,86.4784942 C166.118453,82.1410889 166.056121,77.7774893 165.59754,73.4515841 C162.15468,40.9750308 132.067026,3.60332383 98.1580706,0.244054912 C96.5291839,0.0824164493 94.8913928,0 93.2478773,0 C91.2437298,0 89.2300417,0.122666343 87.2119014,0.37694345" id="path-1"></path>
        <linearGradient x1="142.686949%" y1="155.217955%" x2="21.395567%" y2="9.36461313%" id="linearGradient-3">
            <stop stop-color="#83DCE6" offset="0%"></stop>
            <stop stop-color="#3F9BA2" offset="100%"></stop>
        </linearGradient>
        <polygon id="path-4" points="0.314954693 0.311249032 121.137555 0.311249032 121.137555 75.2298851 0.314954693 75.2298851"></polygon>
        <path d="M19.2763353,0.0353571429 C16.9757157,0.0567857143 15.3032479,1.85035714 13.8037171,1.92964286 C13.1275893,1.965 12.4760075,1.72714286 11.8121527,1.48928571 C10.6094039,1.05964286 9.36537351,0.628928571 7.86695838,1.815 C5.53733009,3.65678571 6.33060869,5.57892857 5.69576266,6.61714286 C5.46480813,6.99428571 5.03302358,6.97392857 4.48408818,6.95357143 C3.53126128,6.91607143 2.22698184,6.88071429 1.01753879,8.94321429 C-1.87999218,13.8878571 6.23354084,13.8246429 6.23354084,13.8246429 C6.23354084,13.8246429 10.85821,14.5157143 15.8923493,11.1246429 C16.5829815,10.6607143 17.5302298,10.6082143 18.1740016,11.1310714 C19.9424215,12.5657143 22.2642397,21.6964286 22.2642397,21.6964286 L23.7448033,19.7817857 C23.7448033,19.7817857 27.6286329,18.1928571 26.9458108,14.4567857 C26.7985354,13.6414286 27.5070191,11.6742857 28.0090942,10.9992857 C31.236879,6.65571429 26.9580837,5.03142857 25.4607843,4.53321429 C23.8039366,3.9825 23.4558312,1.41964286 21.246701,0.456428571 C20.5739204,0.162857143 19.9480001,0.0417857143 19.3633616,0.0353571429 L19.2763353,0.0353571429 Z" id="path-6"></path>
        <polygon id="path-8" points="0.262935864 0.0848123796 36.3746834 0.0848123796 36.3746834 56.1266948 0.262935864 56.1266948"></polygon>
    </defs>
    <g id="Web-" stroke="none" stroke-width="1" fill="none" fill-rule="evenodd">
        <g id="2.1-Log-In" transform="translate(-435.000000, -549.000000)">
            <g id="KTP,KTM-" transform="translate(435.000000, 549.000000)">
                <g id="KTP,KTM">
                    <g id="Group-3" transform="translate(83.000000, 79.000000) rotate(180.000000) translate(-83.000000, -79.000000) ">
                        <g id="3" transform="translate(0.000000, 0.000000)">
                            <g id="Group-3" transform="translate(83.000000, 79.000000) rotate(-180.000000) translate(-83.000000, -79.000000) translate(0.000000, 0.000000)">
                                <mask id="mask-2" fill="white">
                                    <use xlink:href="#path-1"></use>
                                </mask>
                                <g id="Clip-2"></g>
                                <path d="M83.306019,0.37694345 C58.2633974,3.52665737 26.2129378,14.3724065 8.90768673,33.5096339 C3.6044236,39.3739795 -0.176806827,46.4407109 -1.80569348,54.2127737 C-3.04914267,60.1480358 -3.90079407,65.9619094 -3.90588235,71.5330058 L-3.90588235,71.6326722 C-3.89570579,82.5480601 -0.620123498,92.5332282 9.35036737,100.689901 C19.1262314,108.685574 31.0887851,109.53785 41.7105762,115.374085 C61.8582695,126.444722 68.2160793,154.33151 93.3528342,157.679918 C94.9403785,157.891389 96.5221985,157.994889 98.0900258,158 L98.3209066,158 C114.863551,157.948889 130.119496,146.90764 140.841781,134.932977 C152.731827,121.651151 160.614849,104.366058 161.900913,86.4784942 C162.21257,82.1410889 162.150239,77.7774893 161.691657,73.4515841 C158.248798,40.9750308 128.161143,3.60332383 94.2521882,0.244054912 C92.6233016,0.0824164493 90.9855104,0 89.341995,0 C87.3378474,0 85.3241594,0.122666343 83.306019,0.37694345" id="Fill-1" fill="url(#linearGradient-3)" mask="url(#mask-2)"></path>
                            </g>
                        </g>
                    </g>
                    <g id="Group-44" transform="translate(29.000000, 19.000000)">
                        <g id="Group-3" transform="translate(7.818182, 9.770115)" fill="#212B53" opacity="0.192847842">
                            <path d="M120.794666,5.25517777 C120.719911,3.75174945 120.040427,2.3983911 118.978512,1.4500268 C117.988205,0.55467423 116.687861,0 115.254139,0 L115.245089,0 L5.58026535,0 L5.57121606,0 C4.17487102,0 2.90718329,0.536353999 1.92631877,1.3853213 C1.9215974,1.39233756 1.91687603,1.39701507 1.90979398,1.40130278 C1.88894126,1.4200128 1.86572786,1.43170657 1.85156375,1.4500268 L1.86100649,1.45470431 C1.29837662,1.9614341 0.833715171,2.5671711 0.5114817,3.25437466 C0.485907615,3.31011494 0.473710744,3.36780418 0.455612161,3.42081591 C0.326954841,3.71705795 0.208133707,4.0175877 0.135739374,4.33682747 C0.0676729634,4.63073075 0.0487874852,4.94061551 0.0326561393,5.25517777 C0.0283282172,5.34560955 0,5.42863528 0,5.51633851 L0,69.4021026 C0,71.0185707 0.74243536,72.4463793 1.87280992,73.4547716 L1.85156375,73.4684143 C1.89602332,73.5081731 1.94284357,73.5377973 1.99438518,73.5771663 C2.00815584,73.5908091 2.01956582,73.6118578 2.03609061,73.6212129 L2.0459268,73.6165353 C3.00987308,74.4167786 4.22641263,74.9188309 5.57121606,74.9188309 L115.254139,74.9188309 C115.620438,74.9188309 115.975721,74.8845292 116.326283,74.8100789 C116.568647,74.7613549 116.79724,74.6830067 117.02662,74.6042687 C117.117506,74.5742547 117.213114,74.5555446 117.299672,74.5208531 C117.60302,74.3984584 117.885122,74.2503374 118.163289,74.0835063 C118.163289,74.0835063 118.173125,74.0722024 118.184142,74.0722024 C119.760686,73.0934343 120.822601,71.3682142 120.822601,69.4021026 L120.822601,5.51633851 L120.822601,5.23179024 L120.794666,5.25517777 Z" id="Fill-1"></path>
                        </g>
                        <g id="Group-6">
                            <mask id="mask-5" fill="white">
                                <use xlink:href="#path-4"></use>
                            </mask>
                            <g id="Clip-5"></g>
                            <path d="M121.109621,5.56642681 C121.034866,4.06299848 120.355382,2.70964013 119.293467,1.76127583 C118.30316,0.865923262 117.002816,0.311249032 115.569093,0.311249032 L115.560044,0.311249032 L5.89561349,0.311249032 L5.8865642,0.311249032 C4.48982571,0.311249032 3.22213799,0.847603031 2.24127347,1.69657034 C2.2365521,1.7031968 2.23183073,1.70787431 2.22514212,1.71255181 C2.2042894,1.73087204 2.181076,1.74256581 2.16651845,1.76127583 L2.17635463,1.76595334 C1.61333132,2.27229334 1.14906331,2.87842014 0.826436393,3.5656237 C0.800862308,3.62097418 0.789058884,3.67866342 0.770566854,3.73167515 C0.641909534,4.02830698 0.523481848,4.32883673 0.450694067,4.6480765 C0.383021104,4.94158999 0.364135626,5.25147475 0.347610832,5.56642681 C0.34328291,5.65646879 0.314954693,5.73949452 0.314954693,5.82758755 L0.314954693,69.7133516 C0.314954693,71.3298197 1.05739005,72.7576283 2.18776461,73.7660206 L2.16651845,73.7796634 C2.21137146,73.8194222 2.25779826,73.8490464 2.30933988,73.8884154 C2.32350398,73.9020581 2.33452051,73.9231069 2.35104531,73.9324619 L2.36088149,73.9277844 C3.32482777,74.7280277 4.54136733,75.23008 5.8865642,75.23008 L115.569093,75.23008 C115.935393,75.23008 116.290676,75.1957782 116.641238,75.1213279 C116.883601,75.0726039 117.112194,74.9942557 117.341574,74.9155177 C117.432461,74.8855037 117.528068,74.8667937 117.614627,74.8321022 C117.917975,74.7097074 118.200077,74.5615864 118.478244,74.3947554 C118.478244,74.3947554 118.48808,74.3834514 118.499097,74.3834514 C120.075641,73.4046833 121.137555,71.6794633 121.137555,69.7133516 L121.137555,5.82758755 L121.137555,5.54303928 L121.109621,5.56642681 Z" id="Fill-4" fill="#FEFEFE" mask="url(#mask-5)"></path>
                        </g>
                        <path d="M53.0294898,49.8275862 L7.56181384,49.8275862 C6.62789514,49.8275862 5.86363636,49.0827929 5.86363636,48.1726608 L5.86363636,6.53959835 C5.86363636,5.6298508 6.62789514,4.88505747 7.56181384,4.88505747 L53.0294898,4.88505747 C53.963014,4.88505747 54.7272727,5.6298508 54.7272727,6.53959835 L54.7272727,48.1726608 C54.7272727,49.0827929 53.963014,49.8275862 53.0294898,49.8275862" id="Fill-7" fill="#25B6C2"></path>
                        <path d="M45.9318182,49.8275862 C44.1245652,36.2840447 40.1725957,27.3563218 31.2233424,27.3563218 C22.5457061,27.3563218 18.5114284,36.2840447 16.6136364,49.8275862 L45.9318182,49.8275862 Z" id="Fill-9" fill="#FED147"></path>
                        <path d="M24.4318182,20.0287356 C24.4318182,24.6149861 27.7133461,28.3333333 31.7611669,28.3333333 C35.8093812,28.3333333 39.0909091,24.6149861 39.0909091,20.0287356 C39.0909091,15.4421085 35.8093812,11.7241379 31.7611669,11.7241379 C27.7133461,11.7241379 24.4318182,15.4421085 24.4318182,20.0287356" id="Fill-11" fill="#F6B58E"></path>
                        <path d="M39.1421558,20.1319435 C40.3044777,15.8127504 40.043005,14.7071459 40.043005,14.7071459 C40.043005,14.7071459 39.7978246,13.7830359 39.5733077,13.314553 C39.3479961,12.8460701 34.7750044,9.77011494 31.8439664,9.77011494 C28.9145178,9.77011494 25.0536222,12.3375071 24.5489559,12.9424891 C24.044687,13.5474711 23.6961891,15.8671988 23.6961891,15.8671988 C23.6961891,15.8671988 22.8783914,16.5704903 24.2517194,20.5172414 C24.041508,16.6117047 24.2743698,15.1113494 26.1615037,15.8743829 C34.9927659,19.4475576 36.312051,14.8977152 37.4135745,16.193889 C39.9742591,19.2051867 38.5031768,20.4019167 39.1421558,20.1319435" id="Fill-13" fill="#212B53"></path>
                        <polygon id="Fill-15" fill="#212B53" points="28.3409091 50.8045977 34.2045455 50.8045977 32.3456754 35.061993 33.8868286 31.4097816 31.7182632 29.3103448 30.5991049 29.3103448 28.4863404 31.5957023 30.251395 35.0001516"></polygon>
                        <path d="M24.2328492,14.0001552 C23.2452773,13.0811897 23.1902127,11.5356008 24.1095524,10.5479699 C25.0288921,9.56116136 26.5750906,9.50565338 27.5626625,10.42503 C28.5502344,11.3444067 28.6052991,12.8895844 27.6855603,13.8768041 C26.7666197,14.864435 25.2204212,14.9195318 24.2328492,14.0001552" id="Fill-17" fill="#212B53"></path>
                        <path d="M35.960122,15.9544643 C34.97255,15.0350574 34.9174854,13.4894175 35.8368251,12.5021652 C36.7561648,11.5149129 38.3023633,11.4598143 39.2899352,12.3792213 C40.2775072,13.2986282 40.3325718,14.8438569 39.4128331,15.8311092 C38.4938924,16.8183614 36.9476939,16.8734601 35.960122,15.9544643" id="Fill-19" fill="#212B53"></path>
                        <path d="M22.9008115,18.3613495 C21.1235277,16.706744 21.0239659,13.9249114 22.6792336,12.1476294 C24.3340776,10.3707839 27.1167237,10.2712457 28.8944312,11.9258511 C30.6721387,13.5804566 30.7712768,16.3622892 29.1164328,18.1395712 C27.4615888,19.9168532 24.678519,20.0159549 22.9008115,18.3613495" id="Fill-21" fill="#212B53"></path>
                        <path d="M26.8101763,17.3843589 C25.0325236,15.7297827 24.9329649,12.9475627 26.5886052,11.1707488 C28.2433982,9.39349827 31.0259584,9.29439832 32.8031875,10.9489745 C34.5812638,12.6035506 34.6803989,15.385334 33.0256059,17.1625845 C31.3703893,18.9398351 28.5874053,19.038935 26.8101763,17.3843589" id="Fill-23" fill="#212B53"></path>
                        <path d="M34.9828492,14.0001552 C33.9952773,13.0811897 33.9402127,11.5356008 34.8595524,10.5479699 C35.7788921,9.56116136 37.3250906,9.50565338 38.3126625,10.42503 C39.3002344,11.3444067 39.3552991,12.8895844 38.4355603,13.8768041 C37.5166197,14.864435 35.9704212,14.9195318 34.9828492,14.0001552" id="Fill-25" fill="#212B53"></path>
                        <path d="M26.4985974,13.7383528 C25.1162413,12.4511713 25.0388232,10.2876109 26.3264288,8.9055677 C27.6136492,7.5231276 29.7778896,7.44612692 31.1606309,8.73291153 C32.5426018,10.0196961 32.6204051,12.1836535 31.3327995,13.5656967 C30.0455791,14.9481368 27.8813387,15.0251375 26.4985974,13.7383528" id="Fill-27" fill="#212B53"></path>
                        <path d="M30.4075615,14.7153643 C29.0251749,13.4285797 28.9481402,11.2646224 30.2353891,9.88257919 C31.5226379,8.50013909 33.686926,8.42313841 35.0696978,9.70992302 C36.4516992,10.9971045 36.5295042,13.160665 35.2418702,14.5427082 C33.9546214,15.9251483 31.7903332,16.0021489 30.4075615,14.7153643" id="Fill-29" fill="#212B53"></path>
                        <polygon id="Fill-31" fill="#E4E4E3" points="56.6818182 19.5402299 113.363636 19.5402299 113.363636 9.77011494 56.6818182 9.77011494"></polygon>
                        <polygon id="Fill-33" fill="#E4E4E3" points="56.6818182 28.3333333 113.363636 28.3333333 113.363636 23.4482759 56.6818182 23.4482759"></polygon>
                        <polygon id="Fill-34" fill="#E4E4E3" points="56.6818182 35.1724138 113.363636 35.1724138 113.363636 30.2873563 56.6818182 30.2873563"></polygon>
                        <polygon id="Fill-35" fill="#E4E4E3" points="56.6818182 43.9655172 113.363636 43.9655172 113.363636 39.0804598 56.6818182 39.0804598"></polygon>
                        <path d="M91.5220419,61.7617882 C90.6971859,61.2162938 89.7952285,61.9191107 89.7952285,61.9191107 L89.7952285,61.9059663 C88.4483227,62.7484429 86.6396699,62.3902568 85.7562341,61.1053876 C84.8723675,59.8209291 85.2483985,58.0961318 86.5953043,57.2536552 C87.6721397,56.5804133 89.0840864,56.6592799 90.0704677,57.448768 C90.5141239,57.7112461 91.0758013,57.7112461 91.5194575,57.448768 C91.5194575,57.448768 92.5148842,56.6621553 91.1124137,55.6130644 L91.1537641,55.6130644 C88.8458904,54.0525727 85.6485505,54.5717781 84.0121913,56.7726507 C82.3762629,58.9731125 82.9202802,62.0222124 85.2281539,63.5827042 C87.0385297,64.8067804 89.4695935,64.7800808 91.2498179,63.5161605 C92.4485511,62.4933585 91.5220419,61.7617882 91.5220419,61.7617882" id="Fill-36" fill="#0A5F6A"></path>
                        <path d="M106.175185,61.7617882 C105.349048,61.2162938 104.445689,61.9191107 104.445689,61.9191107 C104.446984,61.9145923 104.446984,61.9100739 104.445689,61.9059663 C103.09626,62.7484429 101.285229,62.3902568 100.399989,61.1053876 C99.5151812,59.8209291 99.8917963,58.0961318 101.240794,57.2536552 C102.319303,56.5804133 103.733443,56.6592799 104.721356,57.448768 C105.165701,57.7112461 105.72782,57.7112461 106.172165,57.448768 C106.172165,57.448768 107.169138,56.6621553 105.767509,55.6130644 L105.825317,55.6130644 C103.51429,54.0525727 100.311983,54.5717781 98.673082,56.7726507 C97.0341809,58.9731125 97.5790433,62.0222124 99.8905021,63.5827042 C101.70369,64.8067804 104.13853,64.7800808 105.92152,63.5161605 C107.105722,62.4933585 106.175185,61.7617882 106.175185,61.7617882" id="Fill-37" fill="#1EAD85"></path>
                        <path d="M95.772533,52.7586207 C96.3125486,52.7586207 96.75,53.195862 96.75,53.7354707 C96.75,54.2750794 96.3125486,54.7126437 95.772533,54.7126437 C95.232906,54.7126437 94.7954545,54.2750794 94.7954545,53.7354707 C94.7954545,53.195862 95.232906,52.7586207 95.772533,52.7586207" id="Fill-38" fill="#0B9BA4"></path>
                        <path d="M96.7487355,56.693953 C96.77594,56.1667489 96.3608775,55.7178461 95.8218404,55.6908588 C95.2828032,55.6646316 94.8238249,56.0702025 94.7966205,56.5977867 C94.7950659,56.6297154 94.7950659,56.6620243 94.7966205,56.693953 L94.7966205,63.5749741 C94.8238249,64.1021782 95.2828032,64.5081292 95.8218404,64.4815219 C96.3227913,64.4568152 96.7238629,64.0653081 96.7487355,63.5749741 L96.7487355,56.693953 Z" id="Fill-39" fill="#0B9BA4"></path>
                        <path d="M109.454545,52.7586207 C109.99428,52.7586207 110.431818,53.195862 110.431818,53.7354707 C110.431818,54.2750794 109.99428,54.7126437 109.454545,54.7126437 C108.914811,54.7126437 108.477273,54.2750794 108.477273,53.7354707 C108.477273,53.195862 108.914811,52.7586207 109.454545,52.7586207" id="Fill-40" fill="#10A24A"></path>
                        <path d="M110.430588,56.6936466 C110.4574,56.1664217 110.042781,55.7175013 109.503426,55.690893 C108.964849,55.6642847 108.505542,56.0698715 108.47873,56.5974765 C108.476787,56.6294065 108.476787,56.6617166 108.47873,56.6936466 L108.47873,63.5749384 C108.505542,64.1021632 108.964849,64.5081302 109.503426,64.4815219 C110.0047,64.4568141 110.40533,64.0652917 110.430588,63.5749384 L110.430588,56.6936466 Z" id="Fill-41" fill="#10A24A"></path>
                        <path d="M113.362406,53.715817 C113.389217,53.212993 112.974618,52.7855202 112.43529,52.7597993 C111.89674,52.7344408 111.437456,53.1213399 111.410257,53.6238016 C111.408702,53.6545942 111.408702,53.6850244 111.410257,53.715817 L111.410257,57.0591617 L111.410257,63.617247 C111.437456,64.1200709 111.89674,64.5066078 112.43529,64.4816115 C112.936539,64.457702 113.337149,64.084569 113.362406,63.617247 L113.362406,57.0591617 L113.362406,53.715817 Z" id="Fill-42" fill="#82BA42"></path>
                        <path d="M97.4650884,65.625739 C97.0693172,65.3284106 96.3864727,65.5212723 96.3864727,65.5212723 C95.5144523,66.2203957 94.0951112,66.2245522 93.2164714,65.5309708 L93.2042778,65.5212723 C93.2042778,65.5212723 92.5235236,65.3284106 92.1256621,65.625739 C91.8490404,65.8493588 91.7842398,66.1888063 91.9657511,66.467569 C93.4969254,67.710917 96.0063791,67.7316995 97.5696054,66.5135676 C97.5887668,66.4983271 97.6082767,66.4830866 97.6274381,66.467569 C97.8061622,66.1882521 97.7406649,65.8496359 97.4650884,65.625739" id="Fill-43" fill="#F29227"></path>
                    </g>
                    <g id="Group-45" transform="translate(110.439065, 110.996273) rotate(7.000000) translate(-110.439065, -110.996273) translate(30.939065, 42.996273)">
                        <g id="Group-25" transform="translate(0.454720, 6.819934)">
                            <path d="M70.9176956,121.527358 L52.1931468,118.785119 C49.6680803,118.672171 46.7808303,118.944766 45.9872056,120.938727 C45.9872056,120.938727 45.4444979,122.260432 45.2832752,123.629923 C45.8282535,124.469428 70.7950754,127.23556 70.7950754,127.23556 L70.9165602,127.164968 C74.0274784,124.520472 70.9176956,121.527358 70.9176956,121.527358" id="Fill-1" fill="#63C0C4"></path>
                            <polygon id="Fill-3" fill="#00898B" points="45.2837293 123.62938 70.7943942 127.235017 70.4231277 128.151631 45.1122882 124.473229"></polygon>
                            <polygon id="Fill-5" fill="#FEFEFE" points="63.5079198 120.429594 61.8196222 120.19501 61.9956048 122.466996 63.6316753 122.704838"></polygon>
                            <polygon id="Fill-7" fill="#FEFEFE" points="59.8922153 119.903627 58.2039177 119.669043 58.3799003 121.941029 60.0159708 122.179957"></polygon>
                            <path d="M73.1507445,115.747152 L70.9174685,121.527032 C69.2984286,122.036383 67.3387771,121.796369 65.8786892,120.912336 L65.6130123,120.750517 L65.6584271,114.658945 L73.1507445,115.747152 Z" id="Fill-9" fill="#F6B58E"></path>
                            <path d="M11.4837162,112.152809 L7.96292884,94.3483455 C7.23402027,92.0329181 6.00554817,89.5187462 3.77567832,89.4666165 C3.77567832,89.4666165 2.29288298,89.4155729 0.889563663,89.726179 C0.24240184,90.4972641 5.81480574,113.939338 5.81480574,113.939338 L5.92493679,114.02622 C9.56720894,115.953933 11.4837162,112.152809 11.4837162,112.152809" id="Fill-11" fill="#63C0C4"></path>
                            <polygon id="Fill-13" fill="#00898B" points="0.889450126 89.7257446 5.81469221 113.938903 4.78831626 113.90958 0.000454148647 89.8517247"></polygon>
                            <polygon id="Fill-15" fill="#FEFEFE" points="10.1033314 105.103137 9.77293828 103.501234 7.5918894 104.416762 7.90071048 105.970879"></polygon>
                            <polygon id="Fill-17" fill="#FEFEFE" points="9.41915648 101.665835 9.08876334 100.065019 6.90771446 100.97946 7.21767091 102.534663"></polygon>
                            <path d="M17.92502,112.245122 L11.4840568,112.152809 C10.4440564,110.861513 10.0285104,109.013081 10.4156722,107.402491 L10.4860652,107.109261 L16.5080763,105.123988 L17.92502,112.245122 Z" id="Fill-19" fill="#F6B58E"></path>
                            <path d="M126.533193,103.37015 C126.533193,103.37015 106.16122,109.998224 76.2986758,108.195405 C71.3722984,107.897831 66.4288903,108.562485 61.7693252,110.120946 C43.6839907,116.164733 16.8687838,112.93595 16.8687838,112.93595 L14.9500058,104.898202 L104.353708,82.5682284 L126.533193,103.37015 Z" id="Fill-21" fill="#053C5D"></path>
                            <path d="M136.291371,0.658137436 L138.511023,11.8931734 C137.346132,12.1168966 136.969188,13.4581503 137.452857,14.4453565 C137.396088,14.7255536 137.40063,15.0220413 137.465346,15.3076686 C135.809974,17.1452404 132.622986,19.7777902 127.711368,20.0069436 C120.029444,20.3653353 121.019488,5.76141765 121.019488,5.76141765 L136.291371,0.658137436 Z" id="Fill-23" fill="#F6B58E"></path>
                        </g>
                        <g id="Group-28" transform="translate(114.616781, 0.077700)">
                            <mask id="mask-7" fill="white">
                                <use xlink:href="#path-6"></use>
                            </mask>
                            <g id="Clip-27"></g>
                            <path d="M19.2763353,0.0353571429 C16.9757157,0.0567857143 15.3032479,1.85035714 13.8037171,1.92964286 C13.1275893,1.965 12.4760075,1.72714286 11.8121527,1.48928571 C10.6094039,1.05964286 9.36537351,0.628928571 7.86695838,1.815 C5.53733009,3.65678571 6.33060869,5.57892857 5.69576266,6.61714286 C5.46480813,6.99428571 5.03302358,6.97392857 4.48408818,6.95357143 C3.53126128,6.91607143 2.22698184,6.88071429 1.01753879,8.94321429 C-1.87999218,13.8878571 6.23354084,13.8246429 6.23354084,13.8246429 C6.23354084,13.8246429 10.85821,14.5157143 15.8923493,11.1246429 C16.5829815,10.6607143 17.5302298,10.6082143 18.1740016,11.1310714 C19.9424215,12.5657143 22.2642397,21.6964286 22.2642397,21.6964286 L23.7448033,19.7817857 C23.7448033,19.7817857 27.6286329,18.1928571 26.9458108,14.4567857 C26.7985354,13.6414286 27.5070191,11.6742857 28.0090942,10.9992857 C31.236879,6.65571429 26.9580837,5.03142857 25.4607843,4.53321429 C23.8039366,3.9825 23.4558312,1.41964286 21.246701,0.456428571 C20.5739204,0.162857143 19.9480001,0.0417857143 19.3633616,0.0353571429 L19.2763353,0.0353571429 Z" id="Fill-26" fill="#212B53" mask="url(#mask-7)"></path>
                        </g>
                        <g id="Group-44" transform="translate(54.133199, 14.129695)">
                            <path d="M84.4067191,2.46261386 C84.2537176,3.41941111 83.3209753,4.07680241 82.322499,3.93143866 C81.3228894,3.7860749 80.6360828,2.8921963 80.7890843,1.93756866 C80.9398191,0.980771416 81.8736947,0.322295308 82.872171,0.468743866 C83.8706473,0.614107619 84.5585872,1.50690142 84.4067191,2.46261386" id="Fill-29" fill="#F6B58E"></path>
                            <polygon id="Fill-31" fill="#F6B58E" points="83.7659263 7.66945674 87.4164281 15.9692932 80.0077568 18.0846612 77.1505959 11.3577908"></polygon>
                            <path d="M102.765989,71.0987137 C102.765989,71.0987137 100.646635,94.004353 78.9702934,95.7281068 C57.2939515,97.4529453 30.7668961,74.6731433 30.7668961,74.6731433 L20.1723942,109.323957 L11.7686466,108.102467 C11.7686466,108.102467 7.89827602,56.9268325 19.4413871,53.7483564 C30.9844982,50.5698803 75.0319222,67.065412 75.0319222,67.065412 L102.765989,71.0987137 Z" id="Fill-33" fill="#212B53"></path>
                            <g id="Group-37" transform="translate(66.867310, 14.972019)">
                                <mask id="mask-9" fill="white">
                                    <use xlink:href="#path-8"></use>
                                </mask>
                                <g id="Clip-36"></g>
                                <path d="M35.8986789,56.1266948 L0.262935864,50.9445854 C0.262935864,50.9445854 2.67242572,43.4898115 3.1200967,35.7020026 C3.45783328,29.8071769 1.14581103,24.5382833 1.14581103,24.5382833 C3.09176309,11.5054464 8.04901081,-1.18350753 20.0907934,0.186600086 C40.6587247,5.00638485 35.8986789,56.1266948 35.8986789,56.1266948" id="Fill-35" fill="#00666A" mask="url(#mask-9)"></path>
                            </g>
                            <polygon id="Fill-38" fill="#C5C5C5" points="3.12746344 22.7051675 15.5205827 52.870316 46.9572853 49.3013104 47.2542215 51.6965579 13.8863003 55.4846939 0.783707543 23.5871132"></polygon>
                            <path d="M82.1323239,41.2772312 L68.0561884,39.2302058 L66.5681074,54.3035592 L41.766002,46.8357675 L36.261349,43.3340198 C34.8401353,42.4292932 33.1197188,42.0604598 31.4310359,42.2936926 L24.6037701,43.2418115 C23.8999634,43.338359 23.3446247,43.8666586 23.2380903,44.5392372 L20.7526664,51.5015101 C20.7526664,51.5015101 22.374482,52.6514025 25.0038407,46.7880362 C26.2391859,53.7221042 36.5208849,49.120365 36.5208849,49.120365 L39.9719181,51.4516091 C39.9719181,51.4516091 66.5284403,70.2480103 73.2117713,66.8005028 C79.893969,63.3529953 82.1323239,41.2772312 82.1323239,41.2772312" id="Fill-40" fill="#F6B58E"></path>
                            <path d="M23.2382037,44.5390202 C23.344738,43.8664417 23.8989434,43.3392269 24.6038835,43.2415945 L31.4311492,42.2945605 C33.1198321,42.0602428 34.8402487,42.430161 36.2614624,43.3348876 L41.7661153,46.8355506 L42.5764565,47.0807163 L41.6935813,52.6403375 C40.6055708,51.8994163 39.9720314,51.4513922 39.9720314,51.4513922 L36.5209982,49.1212329 C36.5209982,49.1212329 26.2381659,53.7218872 25.003954,46.7878192 C22.3745954,52.6522703 20.7527797,51.5012932 20.7527797,51.5012932 L23.2382037,44.5390202 Z" id="Fill-42" fill="#F6B58E"></path>
                        </g>
                    </g>
                </g>
            </g>
        </g>
    </g>
</svg>